<svg width="61" height="61" viewBox="0 0 61 61" fill="none" xmlns="http://www.w3.org/2000/svg">
<path d="M25.8125 16.9375C26.6758 16.9375 27.375 16.2383 27.375 15.375V9.125C27.375 8.26172 26.6758 7.5625 25.8125 7.5625C24.9492 7.5625 24.25 8.26172 24.25 9.125V12.25V15.375C24.25 16.2383 24.9492 16.9375 25.8125 16.9375Z" fill="#ED3237"/>
<path d="M35.1875 16.9375C36.0508 16.9375 36.75 16.2383 36.75 15.375V9.125C36.75 8.26172 36.0508 7.5625 35.1875 7.5625C34.3242 7.5625 33.625 8.26172 33.625 9.125V15.375C33.625 16.2383 34.3242 16.9375 35.1875 16.9375Z" fill="#ED3237"/>
<path d="M25.7844 34.8031L29.7062 32.5625L25.7844 30.3219C25.6664 30.2539 25.5336 30.2188 25.3977 30.2188H25.0312V34.9062H25.3977C25.5336 34.9062 25.6664 34.8703 25.7844 34.8031Z" fill="#ED3237"/>
<path d="M43.7812 13.8125C43.7812 13.382 43.4312 13.0312 43 13.0312H38.3125V15.375C38.3125 17.0984 36.9109 18.5 35.1875 18.5C33.4641 18.5 32.0625 17.0984 32.0625 15.375V13.0312H28.9375V15.375C28.9375 17.0984 27.5359 18.5 25.8125 18.5C24.0891 18.5 22.6875 17.0984 22.6875 15.375V13.0312H18C17.5688 13.0312 17.2188 13.382 17.2188 13.8125V19.2812H43.7812V13.8125Z" fill="#ED3237"/>
<path d="M40.6562 35.2711V32.8859L37.5312 29.7609V29.4375C37.5312 27.5359 38.8984 25.9516 40.7008 25.6055C40.6719 25.3234 40.6562 25.0375 40.6562 24.75V23.9688H20.3438V28.6562H25.3977C25.8055 28.6562 26.2078 28.7633 26.5609 28.9656L32.8562 32.5625L26.5602 36.1594C26.2078 36.3617 25.8055 36.4688 25.3977 36.4688H20.3438V47.4062H34.4203C34.4164 47.3008 34.4062 47.1953 34.4062 47.0898V46.9641C34.4062 42.2258 36.7367 37.8906 40.6562 35.2711ZM26.5937 44.2812H25.0312V42.7188H26.5937V44.2812ZM29.7187 44.2812H28.1562V42.7188H29.7187V44.2812ZM32.8437 44.2812H31.2812V42.7188H32.8437V44.2812Z" fill="#ED3237"/>
<path d="M18.7812 23.9688C18.7812 23.107 19.482 22.4062 20.3438 22.4062H40.6562C41.518 22.4062 42.2188 23.107 42.2188 23.9688H43.7812V20.8438H17.2188V28.6562H18.7812V23.9688Z" fill="#ED3237"/>
<path d="M42.2188 33.3438H46.9062V34.9062H42.2188V33.3438Z" fill="#ED3237"/>
<path d="M47.7637 31.218C49.0629 29.593 49.8441 27.5984 50.002 25.5312H42.2637C42.4363 27.0422 43.109 28.4414 44.2004 29.5328L44.334 29.6656L43.2309 30.7719L43.0965 30.6383C42.1027 29.6445 41.3934 28.4438 41.0043 27.1344C40.0168 27.3203 39.2457 28.1273 39.1152 29.1336L41.7613 31.7812H47.3129L47.7637 31.218Z" fill="#ED3237"/>
<path d="M20.3438 48.9688C19.482 48.9688 18.7812 48.268 18.7812 47.4062V36.4688H17.2188V49.75C17.2188 50.1812 17.5688 50.5312 18 50.5312H35.1727C34.9391 50.0305 34.7617 49.5063 34.6336 48.9688H20.3438Z" fill="#ED3237"/>
<path d="M47.4602 36.4688H41.6648C38.0938 38.7875 35.9688 42.6937 35.9688 46.9641V47.0898C35.9688 48.6227 36.5086 50.1156 37.4906 51.2945C38.7422 52.7945 40.5805 53.6562 42.5352 53.6562H46.5891C48.5438 53.6562 50.382 52.7945 51.6336 51.2938C52.6164 50.1156 53.1562 48.6227 53.1562 47.0898V46.9641C53.1562 42.6937 51.0312 38.7875 47.4602 36.4688ZM46.9062 44.2812H45.3438V43.5C45.3438 43.0687 44.9937 42.7188 44.5625 42.7188H43.7812V43.5C43.7812 43.9313 44.1313 44.2812 44.5625 44.2812C45.8547 44.2812 46.9062 45.3328 46.9062 46.625V48.9688H45.3438V50.5312H43.7812V48.825C42.8742 48.5016 42.2188 47.6422 42.2188 46.625V45.8438H43.7812V46.625C43.7812 47.0562 44.1313 47.4062 44.5625 47.4062H45.3438V46.625C45.3438 46.1938 44.9937 45.8438 44.5625 45.8438C43.2703 45.8438 42.2188 44.7922 42.2188 43.5V41.1562H43.7812V39.5938H45.3438V41.3C46.2508 41.6234 46.9062 42.4828 46.9062 43.5V44.2812Z" fill="#ED3237"/>
<path d="M15.6562 33.3438H23.4688V34.9062H15.6562V33.3438Z" fill="#ED3237"/>
<path d="M15.6562 30.2188H23.4688V31.7812H15.6562V30.2188Z" fill="#ED3237"/>
<path d="M7.84375 31V34.125C7.84375 34.5563 8.19375 34.9062 8.625 34.9062H10.9688V30.2188H8.625C8.19375 30.2188 7.84375 30.5695 7.84375 31Z" fill="#ED3237"/>
<path d="M12.5312 30.2188H14.0938V34.9062H12.5312V30.2188Z" fill="#ED3237"/>
</svg>
