<svg width="61" height="61" viewBox="0 0 61 61" fill="none" xmlns="http://www.w3.org/2000/svg">
<path fill-rule="evenodd" clip-rule="evenodd" d="M24.2384 34.6796C24.2495 34.5165 24.3228 34.3639 24.443 34.2531C24.5633 34.1424 24.7215 34.082 24.8849 34.0844C25.0484 34.0868 25.2047 34.1517 25.3217 34.2659C25.4387 34.3801 25.5075 34.5348 25.5138 34.6982C25.9379 34.8357 26.3087 35.1017 26.5749 35.4593C26.841 35.817 26.9893 36.2486 26.9992 36.6943C27.0039 36.7797 26.9913 36.8653 26.9623 36.9458C26.9333 37.0263 26.8884 37.1001 26.8302 37.1629C26.7721 37.2257 26.702 37.2762 26.624 37.3114C26.546 37.3466 26.4617 37.3657 26.3761 37.3677C26.2906 37.3696 26.2055 37.3544 26.126 37.3228C26.0464 37.2913 25.974 37.244 25.9131 37.184C25.8521 37.1239 25.8039 37.0522 25.7712 36.9731C25.7385 36.894 25.7221 36.8092 25.7228 36.7236C25.7172 36.554 25.6625 36.3896 25.5655 36.2504C25.4684 36.1111 25.3332 36.003 25.176 35.9389C25.0188 35.8749 24.8464 35.8577 24.6797 35.8895C24.513 35.9213 24.3591 36.0007 24.2365 36.1181C24.1545 36.1966 24.0889 36.2907 24.0436 36.3948C23.9983 36.4989 23.9743 36.611 23.9728 36.7246C23.9698 36.8395 23.9896 36.954 24.031 37.0613C24.0724 37.1686 24.1345 37.2667 24.2139 37.3499C24.2933 37.4331 24.3884 37.4998 24.4937 37.5462C24.5989 37.5926 24.7123 37.6177 24.8273 37.6201C26.7941 37.6611 27.6593 40.0068 26.3068 41.3173C26.0563 41.5616 25.7499 41.7409 25.4142 41.8398C25.4031 42.0029 25.3299 42.1556 25.2096 42.2663C25.0894 42.377 24.9312 42.4374 24.7677 42.4351C24.6043 42.4327 24.4479 42.3677 24.3309 42.2535C24.2139 42.1393 24.1452 41.9846 24.1388 41.8212C23.715 41.6832 23.3445 41.417 23.0783 41.0595C22.8121 40.702 22.6633 40.2708 22.6525 39.8252C22.6505 39.7413 22.6651 39.6578 22.6953 39.5796C22.7256 39.5013 22.771 39.4298 22.8289 39.3691C22.8868 39.3084 22.9561 39.2597 23.0328 39.2258C23.1095 39.1918 23.1922 39.1733 23.276 39.1713C23.3599 39.1694 23.4434 39.1839 23.5216 39.2142C23.5998 39.2444 23.6714 39.2898 23.7321 39.3477C23.7928 39.4056 23.8415 39.4749 23.8754 39.5516C23.9094 39.6284 23.9279 39.711 23.9298 39.7949C23.9337 39.967 23.9881 40.1343 24.0861 40.2758C24.1842 40.4173 24.3217 40.5269 24.4815 40.591C24.6414 40.655 24.8165 40.6707 24.9852 40.6361C25.1539 40.6015 25.3087 40.5181 25.4304 40.3963C25.552 40.2745 25.6353 40.1196 25.6697 39.9509C25.7041 39.7822 25.6882 39.607 25.624 39.4473C25.5598 39.2875 25.45 39.1501 25.3084 39.0522C25.1667 38.9543 24.9995 38.9001 24.8273 38.8964C24.2561 38.8895 23.7109 38.6564 23.3113 38.2481C22.9117 37.8399 22.6903 37.2899 22.6955 36.7187C22.7016 36.2573 22.8552 35.81 23.1336 35.4421C23.4121 35.0742 23.801 34.805 24.2433 34.6738L24.2384 34.6796ZM38.2853 46.538H33.7033L31.9074 50.6728H40.0812L38.2853 46.538ZM32.3117 46.538L30.9328 49.7119L29.5539 46.538H32.3117ZM35.0197 45.2558L33.2238 41.1211H28.6447L26.8488 45.2558H35.0197ZM41.4728 50.6728L39.6798 46.538H51.3341L53.13 50.6728H41.4728ZM48.0695 45.2558H36.4113L34.6154 41.1211H46.2736L48.0695 45.2558ZM34.7619 13.3164V9.32711H32.8371V12.205L34.7619 13.3164ZM38.9464 20.039L25.7629 12.4218C25.4809 12.2541 25.1588 12.1655 24.8307 12.1655C24.5026 12.1655 24.1806 12.2541 23.8986 12.4218L9.70621 20.6152C9.56643 20.6954 9.41216 20.7473 9.25228 20.7677C9.0924 20.7882 8.93006 20.7768 8.77457 20.7343C7.70036 20.4472 7.55582 19.0253 8.48161 18.4882L23.9211 9.57711C24.1942 9.41323 24.5068 9.32666 24.8254 9.32666C25.1439 9.32666 25.4565 9.41323 25.7297 9.57711L31.8244 13.0927C31.857 13.1165 31.892 13.1367 31.9289 13.1533L35.0304 14.9433C35.0635 14.9672 35.0988 14.9878 35.1359 15.0048L41.1379 18.4765C41.1486 18.4836 41.1597 18.4901 41.1711 18.4961C41.451 18.6599 41.6551 18.9275 41.7392 19.2408C41.8233 19.5541 41.7805 19.8879 41.6203 20.1699C41.2726 20.7558 40.5109 20.9453 39.9718 20.6347L38.9464 20.039ZM29.0295 27.0175H20.6203C19.8058 27.0175 19.3859 27.9404 19.9572 28.4892C20.1358 28.6596 20.3735 28.7541 20.6203 28.7529H29.0295C29.8449 28.7529 30.2648 27.8291 29.6935 27.2802C29.5145 27.1101 29.2765 27.0159 29.0295 27.0175ZM23.3 47.1875C23.2874 47.2245 23.2717 47.2604 23.2531 47.2949L21.7882 50.6748H29.9621L28.1662 46.54H23.5812L23.3 47.1875ZM20.4064 30.0244C17.965 32.375 15.4894 36.2011 15.3644 39.6738C15.3078 41.2363 15.7404 42.6826 16.8293 43.8593C17.3852 44.4445 18.0355 44.9321 18.7531 45.3017C19.3563 45.563 19.9789 45.7769 20.6154 45.9414C21.1695 46.0854 21.7308 46.1998 22.297 46.2841L22.5754 45.6445C22.6246 45.53 22.7064 45.4324 22.8105 45.3638C22.9147 45.2952 23.0366 45.2587 23.1613 45.2587H25.4523L27.6359 40.2304C27.6853 40.1161 27.7671 40.0187 27.8713 39.9503C27.9754 39.8819 28.0973 39.8456 28.2218 39.8457H34.2873C34.2746 36.2861 31.9435 32.2548 29.3068 30.0224C29.2132 30.0342 29.1189 30.0401 29.0246 30.04H20.6203C20.548 30.04 20.4767 30.04 20.4064 30.0302V30.0244ZM28.5744 25.7353C29.09 25.1875 29.4582 24.7255 29.4103 24.4462C29.3547 24.1298 28.7404 23.8232 27.1642 23.5039C27.0616 23.4865 26.9649 23.4441 26.8825 23.3806C26.8001 23.3171 26.7345 23.2344 26.6916 23.1396C25.9025 21.416 23.757 21.417 22.967 23.1396C22.9249 23.2316 22.8616 23.3122 22.7823 23.375C22.7031 23.4378 22.61 23.481 22.5109 23.5009C20.9191 23.8203 20.299 24.1279 20.2443 24.4462C20.1955 24.7255 20.5646 25.1875 21.0793 25.7353H28.5744ZM19.6017 25.9804C19.1466 25.3945 18.8761 24.8193 18.9787 24.2304C19.1203 23.413 19.9552 22.7597 21.9523 22.3134C23.2619 19.9873 26.3888 19.9873 27.6984 22.3134C29.6994 22.7597 30.5304 23.413 30.672 24.2304C30.7697 24.8164 30.5041 25.3916 30.048 25.9804C31.3644 26.6523 31.6623 28.3798 30.5685 29.4218C33.2843 31.9326 35.5578 36.0732 35.5695 39.8398H38.0265V20.9824L25.1173 13.5293C25.0288 13.4764 24.9275 13.4484 24.8244 13.4484C24.7212 13.4484 24.62 13.4764 24.5314 13.5293L11.6242 20.9814V40.1074C11.6252 40.3633 11.7273 40.6085 11.9081 40.7895C12.089 40.9706 12.3341 41.0729 12.59 41.0742H14.1593C13.5734 36.9726 16.3517 32.3212 19.1398 29.4765C17.9875 28.4589 18.2502 26.6709 19.6017 25.9804Z" fill="#ED3237"/>
</svg>
