<svg width="61" height="61" viewBox="0 0 61 61" fill="none" xmlns="http://www.w3.org/2000/svg">
<path d="M12.6768 17.6888H13.7088C14.821 17.6888 15.7248 18.5958 15.7248 19.7081C15.7248 20.8203 14.821 21.7273 13.7088 21.7273H10.2761C9.73135 21.7273 9.29053 22.1665 9.29053 22.7114C9.29053 23.2562 9.73135 23.6954 10.2761 23.6954H12.2072V25.7948C12.2072 26.3396 12.648 26.7788 13.193 26.7788C13.7361 26.7788 14.177 26.3397 14.177 25.7948V23.6004C16.1448 23.3577 17.6962 21.7406 17.6962 19.7082C17.6962 17.5093 15.9061 15.7209 13.7089 15.7209H12.6768C11.5646 15.7209 10.6592 14.8171 10.6592 13.7048C10.6592 12.5926 11.5646 11.6856 12.6768 11.6856H16.1096C16.6546 11.6856 17.0951 11.2465 17.0951 10.7016C17.0951 10.1567 16.6546 9.71763 16.1096 9.71763H14.1769V7.28794C14.1769 6.74312 13.736 6.30396 13.1929 6.30396C12.6479 6.30396 12.2071 6.74302 12.2071 7.28794V9.81245C10.2408 10.0557 8.68945 11.6727 8.68945 13.7047C8.68945 15.9004 10.478 17.6888 12.6768 17.6888Z" fill="#ED3237"/>
<path d="M17.3396 44.8014C14.8781 44.8014 12.875 46.7886 12.875 49.231C12.875 49.4522 12.9038 49.6734 12.9326 49.8945C13.2307 52.0579 15.125 53.6958 17.3396 53.6958C19.5335 53.6958 21.4136 52.0579 21.7132 49.8849C21.742 49.654 21.7692 49.4425 21.7692 49.231C21.7693 46.7887 19.7821 44.8014 17.3396 44.8014Z" fill="#ED3237"/>
<path d="M46.1842 27.2627L49.5321 33.9231C49.5815 34.0288 49.6651 34.1134 49.7323 34.2083C50.5883 33.9359 51.2147 33.1418 51.2147 32.1987V8.95149C51.2147 7.78479 50.266 6.83606 49.0993 6.83606H32.051C30.8843 6.83606 29.9355 7.78479 29.9355 8.95149V25.0095H42.5461C44.0734 25.0094 45.5014 25.8941 46.1842 27.2627ZM35.1504 12.8682H45.9999C46.5433 12.8682 46.9854 13.3073 46.9854 13.8523C46.9854 14.3971 46.5434 14.8363 45.9999 14.8363H35.1504C34.607 14.8363 34.1664 14.3972 34.1664 13.8523C34.1664 13.3073 34.6069 12.8682 35.1504 12.8682ZM34.1664 20.4164C34.1664 19.8716 34.6069 19.4324 35.1504 19.4324H45.9999C46.5433 19.4324 46.9854 19.8715 46.9854 20.4164C46.9854 20.9614 46.5434 21.4004 45.9999 21.4004H35.1504C34.6069 21.4004 34.1664 20.9614 34.1664 20.4164Z" fill="#ED3237"/>
<path d="M53.1343 38.4296L49.5894 36.6571C49.3905 36.5473 49.2543 36.4026 49.083 36.2773C48.716 36.2705 48.381 36.0649 48.2176 35.734C48.2176 35.734 47.9243 35.145 47.7562 34.7764L44.4228 28.1441C44.0685 27.4358 43.3328 26.9774 42.5458 26.9774L28.9511 26.9839C28.9447 26.9839 28.9416 26.9774 28.9353 26.9774H24.6595C23.8599 26.9774 23.1403 27.423 22.7812 28.1409L19.7123 34.3141H38.2511C38.7944 34.3141 39.2351 34.7533 39.2351 35.2981C39.2351 35.843 38.7945 36.2821 38.2511 36.2821H18.1017C17.9927 36.2821 17.9205 36.1996 17.8229 36.1667C17.5376 36.3177 17.2764 36.5149 16.9622 36.5963L8.29053 38.7662C7.32578 39.0162 6.67188 39.8463 6.67188 40.8302V46.9361C6.67188 48.0931 7.62861 49.0354 8.80664 49.0354H10.9268C11.0325 45.5986 13.8596 42.8334 17.3402 42.8334C20.8019 42.8334 23.6146 45.5986 23.7203 49.0354H35.7396C35.8454 45.5986 38.6581 42.8334 42.1195 42.8334C45.5812 42.8334 48.3938 45.5986 48.4996 49.0354H52.195C53.3715 49.0354 54.3281 48.093 54.3281 46.9361V40.3046C54.3281 39.5418 53.849 38.7853 53.1343 38.4296Z" fill="#ED3237"/>
<path d="M42.1186 44.8014C39.6747 44.8014 37.6875 46.7886 37.6875 49.231C37.6875 49.4522 37.7179 49.6734 37.7451 49.8945C38.0415 52.0579 39.923 53.6958 42.1185 53.6958C44.314 53.6958 46.1938 52.0579 46.4921 49.8849C46.5193 49.6734 46.5481 49.4522 46.5481 49.231C46.5482 46.7887 44.561 44.8014 42.1186 44.8014Z" fill="#ED3237"/>
</svg>
