<svg width="61" height="61" viewBox="0 0 61 61" fill="none" xmlns="http://www.w3.org/2000/svg">
<g clip-path="url(#clip0_618_381)">
<g clip-path="url(#clip1_618_381)">
<path d="M8.90625 20.8203H6.5625C5.80742 20.8203 5.19531 21.4324 5.19531 22.1875C5.19531 22.9426 5.80742 23.5547 6.5625 23.5547H8.90625C9.66133 23.5547 10.2734 22.9426 10.2734 22.1875C10.2734 21.4324 9.66133 20.8203 8.90625 20.8203Z" fill="#ED3237"/>
<path d="M53.4375 20.8203H51.0938C50.3387 20.8203 49.7266 21.4324 49.7266 22.1875C49.7266 22.9426 50.3387 23.5547 51.0938 23.5547H53.4375C54.1926 23.5547 54.8047 22.9426 54.8047 22.1875C54.8047 21.4324 54.1926 20.8203 53.4375 20.8203Z" fill="#ED3237"/>
<path d="M49.6121 9.28357L47.5824 10.4554C46.9285 10.833 46.7045 11.6691 47.082 12.323C47.4596 12.9769 48.2957 13.201 48.9496 12.8234L50.9793 11.6515C51.6332 11.274 51.8572 10.4379 51.4797 9.78396C51.1021 9.13006 50.266 8.90603 49.6121 9.28357Z" fill="#ED3237"/>
<path d="M11.0496 31.5492L9.01992 32.7211C8.36603 33.0986 8.14199 33.9348 8.51953 34.5886C8.89707 35.2425 9.73321 35.4666 10.3871 35.089L12.4168 33.9172C13.0707 33.5396 13.2947 32.7035 12.9172 32.0496C12.5396 31.3957 11.7035 31.1717 11.0496 31.5492Z" fill="#ED3237"/>
<path d="M10.3871 9.28523C9.73321 8.90769 8.89707 9.13172 8.51953 9.78562C8.14199 10.4395 8.36603 11.2757 9.01992 11.6532L11.0496 12.8251C11.7035 13.2026 12.5396 12.9786 12.9172 12.3247C13.2947 11.6708 13.0707 10.8346 12.4168 10.4571L10.3871 9.28523Z" fill="#ED3237"/>
<path d="M48.9516 31.5523C48.2977 31.1748 47.4615 31.3988 47.084 32.0527C46.7064 32.7066 46.9305 33.5427 47.5844 33.9203L49.6141 35.0922C50.268 35.4697 51.1041 35.2457 51.4816 34.5918C51.8592 33.9379 51.6351 33.1017 50.9812 32.7242L48.9516 31.5523Z" fill="#ED3237"/>
<path d="M21.6016 42.3047H38.3984V46.4062H21.6016V42.3047Z" fill="#ED3237"/>
<path d="M29.9996 54.8047C31.7474 54.8024 33.451 54.2557 34.8737 53.2406C36.2965 52.2255 37.3678 50.7925 37.9387 49.1406H22.0605C22.6314 50.7925 23.7027 52.2255 25.1255 53.2406C26.5482 54.2557 28.2519 54.8024 29.9996 54.8047Z" fill="#ED3237"/>
<path d="M21.4062 46.4062C21.0436 46.4063 20.6959 46.5503 20.4395 46.8067C20.1831 47.0631 20.0391 47.4108 20.0391 47.7734C20.0391 48.136 20.1831 48.4838 20.4395 48.7402C20.6959 48.9966 21.0436 49.1406 21.4062 49.1406H22.0609C21.7568 48.2611 21.6015 47.3369 21.6016 46.4062H21.4062Z" fill="#ED3237"/>
<path d="M38.5941 46.4062H38.3988C38.3989 47.3369 38.2436 48.2611 37.9395 49.1406H38.5941C38.9567 49.1406 39.3045 48.9966 39.5609 48.7402C39.8173 48.4838 39.9613 48.136 39.9613 47.7734C39.9613 47.4108 39.8173 47.0631 39.5609 46.8067C39.3045 46.5503 38.9567 46.4062 38.5941 46.4062Z" fill="#ED3237"/>
<path d="M30 24.3359C31.1865 24.3359 32.1484 23.374 32.1484 22.1875C32.1484 21.001 31.1865 20.0391 30 20.0391C28.8135 20.0391 27.8516 21.001 27.8516 22.1875C27.8516 23.374 28.8135 24.3359 30 24.3359Z" fill="#ED3237"/>
<path d="M25.1164 22.1875C25.1179 20.8929 25.6328 19.6518 26.5481 18.7364C27.4635 17.821 28.7047 17.3061 29.9992 17.3047C26.2906 17.3047 22.968 20.618 21.6055 22.1875C22.9695 23.7562 26.293 27.0703 29.9992 27.0703C28.7047 27.0689 27.4635 26.554 26.5481 25.6386C25.6328 24.7232 25.1179 23.4821 25.1164 22.1875Z" fill="#ED3237"/>
<path d="M30 17.3047C31.295 17.3047 32.537 17.8191 33.4527 18.7348C34.3684 19.6505 34.8828 20.8925 34.8828 22.1875C34.8828 23.4825 34.3684 24.7245 33.4527 25.6402C32.537 26.5559 31.295 27.0703 30 27.0703C33.7086 27.0703 37.0312 23.757 38.3937 22.1875C37.0312 20.618 33.7086 17.3047 30 17.3047Z" fill="#ED3237"/>
<path d="M30.0001 5.19531C25.4951 5.20048 21.1761 6.99239 17.9905 10.1779C14.805 13.3635 13.0131 17.6825 13.0079 22.1875C12.9982 24.8357 13.6133 27.4488 14.8032 29.8146C15.9932 32.1804 17.7244 34.2322 19.8564 35.8031C20.4041 36.2226 20.8469 36.7636 21.1497 37.3835C21.4526 38.0034 21.6073 38.6851 21.6017 39.375V39.5703H38.3986V39.375C38.3929 38.6851 38.5476 38.0034 38.8505 37.3835C39.1534 36.7636 39.5961 36.2226 40.1439 35.8031C42.2758 34.2322 44.007 32.1804 45.197 29.8146C46.387 27.4488 47.0021 24.8357 46.9923 22.1875C46.9871 17.6825 45.1952 13.3635 42.0097 10.1779C38.8242 6.99239 34.5051 5.20048 30.0001 5.19531ZM41.2618 22.9922C41.0595 23.2703 36.2337 29.8047 30.0001 29.8047C23.7665 29.8047 18.9407 23.2703 18.7384 22.9922C18.5682 22.7584 18.4765 22.4767 18.4765 22.1875C18.4765 21.8983 18.5682 21.6166 18.7384 21.3828C18.9407 21.1047 23.7665 14.5703 30.0001 14.5703C36.2337 14.5703 41.0595 21.1047 41.2618 21.3828C41.432 21.6166 41.5237 21.8983 41.5237 22.1875C41.5237 22.4767 41.432 22.7584 41.2618 22.9922Z" fill="#ED3237"/>
</g>
</g>
<defs>
<clipPath id="clip0_618_381">
<rect width="50" height="50" fill="white" transform="translate(5.5 5)"/>
</clipPath>
<clipPath id="clip1_618_381">
<rect width="50" height="50" fill="white" transform="translate(5 5)"/>
</clipPath>
</defs>
</svg>
