<svg width="61" height="61" viewBox="0 0 61 61" fill="none" xmlns="http://www.w3.org/2000/svg">
<g clip-path="url(#clip0_618_364)">
<g clip-path="url(#clip1_618_364)">
<path d="M41.8478 29.4289H37.1385C37.3819 30.2512 37.553 31.1061 37.553 32.0082C37.553 37.0324 33.4867 41.0988 28.4624 41.0988C23.4375 41.0988 19.3711 37.0324 19.3711 32.0082C19.3711 26.9833 23.4375 22.9169 28.4624 22.9169C29.363 22.9169 30.2154 23.088 31.0389 23.3321V18.6222C30.2037 18.4626 29.3453 18.3719 28.4624 18.3719C20.9249 18.3719 14.8262 24.4707 14.8262 32.0082C14.8262 39.5457 20.9249 45.6444 28.4624 45.6444C35.9999 45.6444 42.0987 39.5457 42.0987 32.0082C42.0987 31.1246 42.0073 30.2641 41.8478 29.4289Z" fill="#ED3237"/>
<path d="M50.4005 26.1419L46.5299 30.0105C46.6028 30.6664 46.6451 31.3326 46.6451 32.0083C46.6451 42.0575 38.5131 50.1895 28.4638 50.1895C18.4139 50.1895 10.282 42.0575 10.282 32.0083C10.282 21.9583 18.4139 13.8264 28.4638 13.8264C29.1382 13.8264 29.8023 13.8686 30.4568 13.9409L34.3274 10.071C32.4544 9.57186 30.4964 9.28076 28.4638 9.28076C15.9015 9.28063 5.73633 19.4458 5.73633 32.0081C5.73633 44.5699 15.9015 54.7343 28.4638 54.7343C41.0256 54.7343 51.1907 44.5699 51.1907 32.0081C51.1907 29.975 50.8996 28.0154 50.4005 26.1419Z" fill="#ED3237"/>
<path d="M49.3059 14.3778L53.4629 10.2194L50.2495 7.00808L46.0918 11.1651V4.7356L35.5851 15.241V21.6718L29.6261 27.6309C29.2531 27.5321 28.8672 27.4624 28.4636 27.4624C25.9505 27.4624 23.918 29.495 23.918 32.0081C23.918 34.5205 25.9505 36.5531 28.4636 36.5531C30.9761 36.5531 33.0086 34.5205 33.0086 32.0081C33.0086 31.6025 32.9397 31.2179 32.8401 30.8449L38.8012 24.8838H45.2293L55.736 14.3778H49.3059Z" fill="#ED3237"/>
</g>
</g>
<defs>
<clipPath id="clip0_618_364">
<rect width="50" height="50" fill="white" transform="translate(5.5 5)"/>
</clipPath>
<clipPath id="clip1_618_364">
<rect width="50" height="50" fill="white" transform="translate(5.73438 4.73499)"/>
</clipPath>
</defs>
</svg>
